<?xml version="1.0" encoding="UTF-8"?><svg id="Layer_2" xmlns="http://www.w3.org/2000/svg" viewBox="0 0 432 432"><defs><style>.cls-1{fill:#3fa12a;}.cls-1,.cls-2{stroke-width:0px;}.cls-2{fill:#fff;}</style></defs><g id="svg57"><circle id="circle3" class="cls-1" cx="216" cy="216" r="216"/><g id="g22"><path id="path20" class="cls-2" d="M320.8,128.9c-40.6,51.2-74.4,117.3-104,192.7-.4.9.3,2,1.3,2h71.5c.6,0,1.2-.4,1.4-1.1,13.6-49.2,23.8-116.3,32.3-192.5.2-1.4-1.6-2.2-2.5-1.1h0Z"/><path id="path21" class="cls-2" d="M197.6,298.7c40.8-54.7,60.3-127.1,58.3-217.4,0-1.3-1.7-1.9-2.6-.9-15,17.6-30.8,50.7-47.3,96.7v.2c-11.4,48.3-14,87.4-11,120.7.1,1.3,1.8,1.8,2.6.7h0Z"/><path id="path22" class="cls-2" d="M86.8,325.5h76.3c.7,0,1.3-.5,1.4-1.2,12.2-70.6,17.3-136,13.4-194.8-.1-1.4-1.9-1.9-2.7-.7-34.9,56.4-64.5,121.9-89.9,194.7-.1,1,.6,2,1.5,2h0Z"/></g></g></svg>