<?xml version="1.0" encoding="UTF-8"?><svg id="Layer_2" xmlns="http://www.w3.org/2000/svg" viewBox="0 0 432 432"><defs><style>.cls-1{fill:#fabf00;}.cls-1,.cls-2{stroke-width:0px;}.cls-2{fill:#fff;}</style></defs><g id="svg57"><circle id="circle6" class="cls-1" cx="216" cy="216" r="216"/><path id="path25" class="cls-2" d="M211.1,105.7c-23.7,31.1-45.7,67.1-66.5,106.7-.5.9-.2,2.1.6,2.7,22,17.5,43.9,33.7,65.6,47.8.8.5,1.2,1.6.9,2.5l-19.5,58.9c-.7,2.1,1.9,3.8,3.5,2.3l81.9-76.3c.9-.8.9-2.3,0-3.1-12.9-12.6-25.5-23.5-37.5-32.2-1-.7-1.2-2.1-.5-3.1l47.4-62c.8-1,.5-2.5-.6-3.2l-72.7-41.4c-.8-.7-2-.4-2.6.4h0Z"/></g></svg>