<?xml version="1.0" encoding="UTF-8"?><svg id="Layer_2" xmlns="http://www.w3.org/2000/svg" viewBox="0 0 432 432"><defs><style>.cls-1{fill:#50413e;}.cls-1,.cls-2{stroke-width:0px;}.cls-2{fill:#fff;}</style></defs><g id="svg57"><circle id="circle17" class="cls-1" cx="216" cy="216" r="216"/><g id="g36"><path id="path35" class="cls-2" d="M298.8,159.7c-.6-.6-1.5-.6-2.1,0-11.7,12.2-26.8,21.7-44,27.3,6.1,10.1,9.7,22.7,9.7,36.5,0,32.9-20.8,59.6-46.4,59.6s-46.4-26.7-46.4-59.6c0-13.7,3.6-26.4,9.7-36.5-17.2-5.6-32.3-15.1-44-27.3-.6-.6-1.5-.6-2.1,0-14.5,16.1-23.2,36.6-23.2,58.9,0,52,47.5,94.2,106.1,94.2s106.1-42.2,106.1-94.2c-.2-22.3-8.9-42.7-23.4-58.9h0Z"/><path id="path36" class="cls-2" d="M216,192.4c-4.1,0-8.2-.2-12.1-.5-.6,0-1.1.2-1.4.8-3.5,6.8-5.6,16.1-5.6,26.4,0,20.6,8.6,37.3,19.1,37.3s19.1-16.7,19.1-37.3c0-10.3-2.1-19.7-5.6-26.4-.3-.5-.8-.8-1.4-.8-4,.3-8,.5-12.1.5Z"/></g></g></svg>