<?xml version="1.0" encoding="UTF-8"?><svg id="Layer_2" xmlns="http://www.w3.org/2000/svg" viewBox="0 0 432 432"><defs><style>.cls-1{fill:#fff;}.cls-1,.cls-2{stroke-width:0px;}.cls-2{fill:#5160e1;}</style></defs><g id="svg57"><circle id="circle19" class="cls-2" cx="216" cy="216" r="216"/><g id="g57"><path id="path54" class="cls-1" d="M260.7,162.3c-1.6-24.9-7.6-46.9-17.4-66.6-.6-1.2-2.4-1-2.7.3-4.2,19.1-8.8,35.5-14,48.8-3.5-.6-7-.9-10.6-.9s-7.2.3-10.6.9c-5.2-13.3-9.8-29.7-14-48.8-.3-1.3-2.1-1.5-2.7-.3-9.8,19.7-15.8,41.7-17.4,66.6-13.1,12.8-21.4,31.1-21.4,51.4,0,25.4,12.9,47.7,32.1,59.9v29.6c0,18.7,15.3,33.9,33.9,33.9s33.9-15.3,33.9-33.9v-29.6c19.3-12.2,32.1-34.4,32.1-59.9.2-20.3-8-38.6-21.2-51.4h0ZM194.2,254.6c-7.9-1.6-20.2-7.7-22.3-10.7-6.6-7.1-10.5-22.7-8.9-40.6.7-8.1,3.6-4,5-1.5,10.6,19.6,20.5,36.4,28.9,48.4,1.5,2.1-.3,4.9-2.7,4.4h0ZM260.2,243.9c-2.1,3-14.4,9.1-22.3,10.7-2.4.5-4.1-2.3-2.7-4.4,8.4-12,18.3-28.8,28.9-48.4,1.4-2.5,4.3-6.6,5,1.5,1.6,17.9-2.4,33.5-8.9,40.6h0Z"/><g id="g56"><path id="path55" class="cls-1" d="M278,261.9c2.6,3.7,12.9,18.6,18.6,31,.4.8,1.4,1.1,2.2.5,47.5-35.6,41.3-91.2,17-128.4-.8-1.2-2.6-.6-2.6.8.2,21.6-4.5,42.3-21.7,56.3-.3.2-.5.6-.5.9-2.2,19.1-7,29.9-12.9,37.1-.5.6-.5,1.3-.1,1.8h0Z"/><path id="path56" class="cls-1" d="M154.1,261.9c-2.6,3.7-12.9,18.6-18.6,31-.4.8-1.4,1.1-2.2.5-47.5-35.6-41.3-91.2-17-128.4.8-1.2,2.6-.6,2.6.8-.2,21.6,4.5,42.3,21.7,56.3.3.2.5.6.5.9,2.2,19.1,7,29.9,12.9,37.1.4.6.5,1.3.1,1.8h0Z"/></g></g></g></svg>