<?xml version="1.0" encoding="UTF-8"?><svg id="Layer_2" xmlns="http://www.w3.org/2000/svg" viewBox="0 0 432 432"><defs><style>.cls-1{fill:#fff;}.cls-1,.cls-2{stroke-width:0px;}.cls-2{fill:#60a1b7;}</style></defs><g id="svg57"><circle id="circle18" class="cls-2" cx="216" cy="216" r="216"/><g id="g39"><path id="path37" class="cls-1" d="M219.6,242.5c-.6-1.9-2.6-3-4.5-2.4l-86.5,25.6c-1.2.3-1.4,1.9-.4,2.6l85.6,59.8c.5.4,1.2.3,1.7,0l23.4-17.4c.5-.4.7-1,.5-1.6l-19.8-66.6Z"/><path id="path38" class="cls-1" d="M211.1,213.9l-13.6-45.7c-.2-.8.2-1.6,1-1.8l18-5.3h.1l69.6-27.3c.7-.3,1.1-1,.9-1.7l-2.1-7.1c-.2-.6-.7-1-1.4-1h-129.5c-.6,0-1.2.4-1.4,1l-41.9,120.2c-.4,1.1.6,2.2,1.8,1.9l96-28.5c1.9-.8,3-2.8,2.5-4.7h0ZM179.3,157.3c-.1.1-.2.2-.3.3-12.7,9.5-27-4.8-17.5-17.5.1-.1.2-.2.3-.3,12.7-9.5,26.9,4.7,17.5,17.5Z"/><path id="path39" class="cls-1" d="M321.2,248.1l-27-91.6c-.2-.8-1.1-1.2-1.9-.9l-64,25.1c-1.7.7-2.7,2.6-2.1,4.4l32.2,108.6c.3,1,1.4,1.3,2.2.7l60.1-44.7c.5-.4.7-1,.5-1.6ZM278.9,212.5c-.1.1-.2.2-.3.3-17.7,13.3-37.6-6.6-24.4-24.4.1-.1.2-.2.3-.3,17.8-13.3,37.7,6.6,24.4,24.4Z"/></g></g></svg>