<?xml version="1.0" encoding="UTF-8"?><svg id="Layer_2" xmlns="http://www.w3.org/2000/svg" viewBox="0 0 432 432"><defs><style>.cls-1{fill:#fff;}.cls-1,.cls-2{stroke-width:0px;}.cls-2{fill:#9fa19e;}</style></defs><g id="svg57"><circle id="circle8" class="cls-2" cx="216" cy="216" r="216"/><path id="path29" class="cls-1" d="M322.4,167.9c5.5-6.8,8.8-15.4,8.8-24.8,0-21.8-17.6-39.4-39.4-39.4-10.3,0-19.7,4-26.7,10.5-15-6.7-31.6-10.5-49.1-10.5s-34.1,3.7-49.1,10.5c-7-6.5-16.4-10.5-26.7-10.5-21.8,0-39.4,17.6-39.4,39.4,0,9.4,3.3,18,8.8,24.8-8.8,16.7-13.8,35.8-13.8,56.1,0,66.4,53.9,120.3,120.3,120.3s120.3-53.9,120.3-120.3c-.1-20.3-5.1-39.4-14-56.1h0ZM216,306.3c-45.5,0-82.4-36.9-82.4-82.4s36.9-82.4,82.4-82.4,82.4,36.9,82.4,82.4-36.9,82.4-82.4,82.4Z"/></g></svg>