<?xml version="1.0" encoding="UTF-8"?><svg id="Layer_2" xmlns="http://www.w3.org/2000/svg" viewBox="0 0 432 432"><defs><style>.cls-1{fill:#81b8ee;}.cls-1,.cls-2{stroke-width:0px;}.cls-2{fill:#fff;}</style></defs><g id="svg57"><circle id="circle7" class="cls-1" cx="216" cy="216" r="216"/><path id="path26" class="cls-2" d="M119.7,316.3c4.2-58.5,17.9-122.1,52.8-164.5.3-.3.7-.6,1.1-.7l136-40c1.7-.5,3.2,1.1,2.7,2.7-12.2,38.8-49.2,67.5-102.4,89.5l68.8-13.7c1.9-.4,3.3,1.8,2.2,3.4-18.8,27.4-51.5,40.5-89.2,48.5l53.6-2.8c1.9-.1,3,2.2,1.7,3.6-20.2,21.8-47.2,28.5-83.6,29.3l-35.8,47.7c-2.7,3.4-8.2,1.3-7.9-3h0Z"/></g></svg>