<?xml version="1.0" encoding="UTF-8"?><svg id="Layer_2" xmlns="http://www.w3.org/2000/svg" viewBox="0 0 432 432"><defs><style>.cls-1{fill:#fff;}.cls-1,.cls-2{stroke-width:0px;}.cls-2{fill:#ee70ee;}</style></defs><g id="svg57"><circle id="circle20" class="cls-2" cx="216" cy="216" r="216"/><path id="path57" class="cls-1" d="M310.7,141.6c-.7-2.1-2.4-3.7-4.6-4.3-35.3-9.1-68.4,4.4-90.2,35.7-21.8-31.3-54.8-44.8-90.2-35.7-2.2.6-3.9,2.2-4.6,4.3-15.4,47.7,8.1,75.5,41.5,91.3-13.7,11.1-16,24.8-13.2,39.8.2.8.7,1.5,1.5,1.9,16.1,6.8,34,8.1,45-3.7-7,27.4-12.1,48.9-9,55.6,4.6,9.9,28.3-46.8,29-56.8.7,10,24.3,66.6,29,56.8,3.1-6.7-2-28.2-9-55.6,11,11.7,28.8,10.5,45,3.7.8-.3,1.4-1,1.5-1.9,2.9-14.9.5-28.7-13.2-39.8,33.4-15.8,56.9-43.6,41.5-91.3h0ZM216,231.1c-16.8,0-28.8-10.4-31.6-18.8,25.8.4,31.6-24,31.6-24,0,0,5.7,24.4,31.6,24-2.8,8.3-14.8,18.8-31.6,18.8Z"/></g></svg>