<?xml version="1.0" encoding="UTF-8"?><svg id="Layer_2" xmlns="http://www.w3.org/2000/svg" viewBox="0 0 432 432"><defs><style>.cls-1{fill:#fff;}.cls-1,.cls-2{stroke-width:0px;}.cls-2{fill:#2981ef;}</style></defs><g id="svg57"><circle id="circle5" class="cls-2" cx="216" cy="216" r="216"/><path id="path24" class="cls-1" d="M281.2,231.8c0-.1-.1-.2-.2-.3-29.6-51.7-46-91.5-61.6-135.5-1.1-3.2-5.6-3.2-6.8,0-15.6,44-32,83.8-61.6,135.5-.1.1-.1.2-.2.3-30.9,67.5,28.9,107.4,65.2,106.5,36.2,1,96.1-39,65.2-106.5ZM270.9,284.9c-10.4,17.7-28.8,33.5-55.3,35.1.3,0-.3,0,0,0-22.3-.7-42.2-13.5-53.6-34-1.9-3.5,1.5-7.5,5.3-6.1,31.4,11.8,68.3,10.6,98.2-1.2,3.9-1.5,7.5,2.6,5.4,6.2Z"/></g></svg>