<?xml version="1.0" encoding="UTF-8"?><svg id="Layer_2" xmlns="http://www.w3.org/2000/svg" viewBox="0 0 432 432"><defs><style>.cls-1{fill:#fff;}.cls-1,.cls-2{stroke-width:0px;}.cls-2{fill:#aea981;}</style></defs><g id="svg57"><circle id="circle10" class="cls-2" cx="216" cy="216" r="216"/><g id="g29"><path id="path28" class="cls-1" d="M320.6,169.7l-58.3-58.3c-1.4-1.4-3.2-2.1-5.1-2.1h-82.4c-1.9,0-3.7.8-5.1,2.1l-58.3,58.3c-1.4,1.4-2.1,3.2-2.1,5.1v82.4c0,1.9.8,3.7,2.1,5.1l58.3,58.3c1.4,1.4,3.2,2.1,5.1,2.1h82.4c1.9,0,3.7-.8,5.1-2.1l58.3-58.3c1.4-1.4,2.1-3.2,2.1-5.1v-82.4c0-1.9-.8-3.7-2.1-5.1ZM252.1,129.5c29.8.5,46.4,15.4,47.8,46.8.1,1.3-1.5,2-2.5,1.1l-46.4-45.4c-.8-1-.2-2.5,1.1-2.5ZM202.7,305.7c-53.2-1.6-78.1-29.4-78.3-80,0-1.3,1.6-1.9,2.5-1l76.9,78.5c.9,1,.2,2.5-1.1,2.5h0ZM229.3,305.7c-1.3,0-2-1.5-1.1-2.5l76.9-78.5c.9-.9,2.5-.3,2.5,1-.2,50.6-25.1,78.4-78.3,80h0Z"/></g></g></svg>