<?xml version="1.0" encoding="UTF-8"?><svg id="Layer_2" xmlns="http://www.w3.org/2000/svg" viewBox="0 0 432 432"><defs><style>.cls-1{fill:#fff;}.cls-1,.cls-2{stroke-width:0px;}.cls-2{fill:#704070;}</style></defs><g id="svg57"><circle id="circle16" class="cls-2" cx="216" cy="216" r="216"/><path id="path53" class="cls-1" d="M320.8,213.5c-9.7-5.8-19-1.2-27.9,5.7,2.2-8.1,3.5-15.8,3.5-22.7,0-44.4-36-80.4-80.4-80.4s-80.4,36-80.4,80.4c0,6.9,1.2,14.6,3.4,22.7-8.9-6.9-18.2-11.4-27.8-5.6-13.6,9.2-20.6,26-16.8,41.3.7,2.7,4,3.6,6,1.6,3.8-3.7,6.7-6.3,11.6-8,8.6-1.8,4.7,18.9,19.8,26.2,13.1,1.1,21.2-6.8,25.3-13.8,17.4,29.9,41.7,55.1,58.9,55.1s41.2-25.4,58.8-55.4c4,7.1,12.2,15.2,25.5,14,15.1-7.3,11.2-28,19.8-26.2,4.9,1.7,7.8,4.3,11.6,8,2,1.9,5.3,1,6-1.6,3.7-15.3-3.3-32.1-16.9-41.3h0ZM193,204.2c-7.3,2.8-17.2-5.3-22.1-18-4.8-12.7-2.8-25.3,4.5-28.1,7.3-2.8,17.2,5.3,22.1,18,4.9,12.7,2.9,25.3-4.5,28.1ZM261.1,186.2c-4.8,12.7-14.7,20.8-22.1,18-7.3-2.8-9.4-15.4-4.5-28.1s14.7-20.8,22.1-18c7.3,2.8,9.3,15.4,4.5,28.1Z"/></g></svg>