<?xml version="1.0" encoding="UTF-8"?><svg id="Layer_2" xmlns="http://www.w3.org/2000/svg" viewBox="0 0 432 432"><defs><style>.cls-1{fill:#fff;}.cls-1,.cls-2{stroke-width:0px;}.cls-2{fill:#ee4179;}</style></defs><g id="svg57"><circle id="circle11" class="cls-2" cx="216" cy="216" r="216"/><path id="path40" class="cls-1" d="M311.1,255.4c-15.1-26.5-15.1-52.3,0-78.8,2.6-4.6,2.7-10.1.3-14.8-2.4-4.7-7-7.8-12.2-8.4-32.2-3.5-55.1-16.5-70.1-40-2.7-4.3-7.3-6.8-12-7.1h-2.6c-4.7.4-9.2,2.8-12,7.1-15,23.4-37.9,36.5-70.1,40-5.2.6-9.8,3.7-12.2,8.4-2.4,4.7-2.3,10.2.3,14.8,15.1,26.5,15.1,52.3,0,78.8-2.6,4.7-2.7,10.3-.2,15.1,2.5,4.7,7.3,7.8,12.6,8.2,28,2,51,15.4,70.2,40.9,2.6,3.4,6.2,5.4,10.1,6h.1c.3,0,.6.1,1,.1.3,0,.7,0,1,.1h.8c.3,0,.7,0,1-.1.3,0,.7-.1,1-.1h.1c3.9-.6,7.6-2.6,10.1-6,19.2-25.6,42.2-38.9,70.2-40.9,5.3-.4,10.1-3.5,12.6-8.2,2.8-4.8,2.7-10.5,0-15.1ZM274.9,251c-22.1,5.6-41.8,17.4-58.9,35.2-17.1-17.8-36.8-29.6-58.9-35.2,8.4-23.4,8.4-46.9-.1-70.2,23.9-5.9,43.6-17.1,59-33.7,15.4,16.5,35.1,27.8,59,33.7-8.6,23.3-8.6,46.8-.1,70.2Z"/></g></svg>