<?xml version="1.0" encoding="UTF-8"?><svg id="Layer_2" xmlns="http://www.w3.org/2000/svg" viewBox="0 0 432 432"><defs><style>.cls-1{fill:#915121;}.cls-1,.cls-2{stroke-width:0px;}.cls-2{fill:#fff;}</style></defs><g id="svg57"><circle id="circle9" class="cls-1" cx="216" cy="216" r="216"/><g id="g34"><path id="path30" class="cls-2" d="M313.5,268.8l-.8-.5-.8.5c-.4.2-.7.4-1,.5l-86.5,33.6c-2.3.9-4.8,1.4-7.3,1.4s-4.9-.4-7.1-1.3l-88.9-33.7c-.3-.1-.7-.3-1-.5l-.8-.5-.8.5c-2.7,1.7-4.3,4.8-3.9,8.1.3,3.3,2.4,6,5.5,7.1l88.9,33.7c2.6,1,5.4,1.5,8.2,1.5h0c2.9,0,5.7-.5,8.3-1.6l86.5-33.6c3.1-1.2,5.1-3.9,5.4-7.2.3-3.2-1.2-6.3-3.9-8Z"/><path id="path31" class="cls-2" d="M120.6,249.8l88.9,33.7c5,1.9,10.5,1.9,15.5-.1l86.5-33.6c6-2.3,6.1-10.8.1-13.2l-86.3-35.1c-5.2-2.1-10.9-2.1-16.1-.1l-88.7,35.1c-6,2.4-5.9,11,.1,13.3h0Z"/><path id="path32" class="cls-2" d="M167.4,151.9h-36.2c-.8,0-1.4-.6-1.4-1.4v-36.2c0-.8.6-1.4,1.4-1.4h36.2c.8,0,1.4.6,1.4,1.4v36.2c0,.8-.6,1.4-1.4,1.4Z"/><path id="path33" class="cls-2" d="M293,169.7h-30.3c-.8,0-1.4-.6-1.4-1.4v-30.3c0-.8.6-1.4,1.4-1.4h30.3c.8,0,1.4.6,1.4,1.4v30.3c.1.7-.6,1.4-1.4,1.4Z"/><path id="path34" class="cls-2" d="M203.6,185.1h-25.6c-.8,0-1.4-.6-1.4-1.4v-25.6c0-.8.6-1.4,1.4-1.4h25.6c.8,0,1.4.6,1.4,1.4v25.6c0,.7-.6,1.4-1.4,1.4Z"/></g></g></svg>