<?xml version="1.0" encoding="UTF-8"?><svg id="Layer_2" xmlns="http://www.w3.org/2000/svg" viewBox="0 0 432 432"><defs><style>.cls-1{fill:#fff;}.cls-1,.cls-2{stroke-width:0px;}.cls-2{fill:#e62828;}</style></defs><g id="svg57"><circle id="circle4" class="cls-2" cx="216" cy="216" r="216"/><path id="path23" class="cls-1" d="M176.7,316.8c-24.3-14-38.1-29.1-41.7-70.6v-.3c3.7-28.3-.4-32.8,49.3-79.1l.1-.1c15.4-11.2,24.8-37.3,4.5-57.5-.9-.9-.3-2.4.9-2.5,19.5-1.4,39.3,2.4,51.3,23.9.1.1.1.2.1.4,4.5,16.2-.1,27.4-6.2,43.6-8.8,25.8-6.3,36.3,2.5,41.4,1.2.7,2.5-.4,2.1-1.7-9-27.7,4.4-37.4,27.6-40.3,1.3-.2,2.2,1.4,1.2,2.4-10.3,10.9-1.3,32.5,19.7,54.8.1.1.2.2.2.3,30.7,56.2-27.4,96.8-75.8,94-1.5-.1-1.9-2-.6-2.7,16.5-8.9,44.1-32.1,19.2-52.8q-.1-.1-.2-.1c-23-13.7-40.9-33-42.7-64.8-.1-1.3-1.8-1.9-2.6-.8-28.2,36.5-26.6,75.2-7.1,110.8.9,1.1-.5,2.5-1.8,1.7h0Z"/></g></svg>