<?xml version="1.0" encoding="UTF-8"?><svg id="Layer_2" xmlns="http://www.w3.org/2000/svg" viewBox="0 0 432 432"><defs><style>.cls-1{fill:#ff7f00;}.cls-1,.cls-2{stroke-width:0px;}.cls-2{fill:#fff;}</style></defs><g id="svg57"><circle id="circle14" class="cls-1" cx="216" cy="216" r="216"/><g id="g51"><path id="path46" class="cls-2" d="M148.5,213.1h-22.9c-4,0-7.2-3.2-7.2-7.2v-94.5c0-2,1.6-3.6,3.6-3.6h30.1c2,0,3.6,1.6,3.6,3.6v94.5c0,4-3.2,7.2-7.2,7.2h0Z"/><path id="path47" class="cls-2" d="M201.1,213.1h-22.9c-4,0-7.2-3.2-7.2-7.2v-94.5c0-2,1.6-3.6,3.6-3.6h30.1c2,0,3.6,1.6,3.6,3.6v94.5c0,4-3.2,7.2-7.2,7.2h0Z"/><path id="path48" class="cls-2" d="M223.6,224v-26c0-2,1.6-3.6,3.6-3.6h82.8c2,0,3.6,1.6,3.6,3.6v36.8c0,2-1.6,3.6-3.6,3.6h-72c-8,0-14.4-6.4-14.4-14.4h0Z"/><path id="path49" class="cls-2" d="M257.3,179.8h-30.1c-2,0-3.6-1.6-3.6-3.6v-64.8c0-2,1.6-3.6,3.6-3.6h30.1c2,0,3.6,1.6,3.6,3.6v64.8c0,2-1.6,3.6-3.6,3.6Z"/><path id="path50" class="cls-2" d="M309.9,179.8h-30.1c-2,0-3.6-1.6-3.6-3.6v-64.8c0-2,1.6-3.6,3.6-3.6h30.1c2,0,3.6,1.6,3.6,3.6v64.8c0,2-1.6,3.6-3.6,3.6Z"/><path id="path51" class="cls-2" d="M227.9,252.8c-10.3,0-18.7-8.4-18.7-18.7h0c0-1.8-1.5-3.2-3.2-3.2h-83.9c-2,0-3.6,1.6-3.6,3.6v43.1c0,1.1.5,2.1,1.4,2.8l44.9,35.9c9.9,7.9,23.2,10,35.1,5.6l111.4-41.7c1.4-.5,2.3-1.9,2.3-3.4v-20.7c0-1.8-1.5-3.2-3.2-3.2h-82.5v-.1Z"/></g></g></svg>