<?xml version="1.0" encoding="UTF-8"?><svg id="Layer_2" xmlns="http://www.w3.org/2000/svg" viewBox="0 0 432 432"><defs><style>.cls-1{fill:#91a11a;}.cls-1,.cls-2{stroke-width:0px;}.cls-2{fill:#fff;}</style></defs><g id="svg57"><circle id="circle12" class="cls-1" cx="216" cy="216" r="216"/><g id="g45"><path id="path41" class="cls-2" d="M147.4,147.9c47.6-51.3,92.6-53.7,134.7.1.4.6.4,1.4-.1,1.9-43.3,43.9-88.2,41.2-134.4.1-.7-.6-.7-1.5-.2-2.1Z"/><path id="path42" class="cls-2" d="M234.9,275.4c-13.4,5.9-26.9,5.9-40.3,0-.8-.3-1.1-1.2-.7-2l9.6-18.9c.3-.6,1-.9,1.7-.7,6.3,1.9,12.7,1.9,19,0,.7-.2,1.4.1,1.7.7l9.6,18.9c.5.7.2,1.6-.6,2Z"/><path id="path43" class="cls-2" d="M248.9,306.4c-22.4,10.9-45.2,10.2-68.3,0-.7-.3-1.1-1.2-.7-2l9.3-18.6c.3-.7,1.1-1,1.8-.7,16.3,6,32.5,6.7,47.5.1.7-.3,1.5,0,1.9.7l9.2,18.6c.3.7,0,1.6-.7,1.9Z"/><path id="path44" class="cls-2" d="M226,204.6c12.2,29.8,27.3,72.8,39.8,116.2.7,2.5,3.7,3.4,5.7,1.8,52.2-42.4,60.5-102.1,25.4-155.8-1.3-2-4.1-2.2-5.7-.4-15.9,17.5-37.3,27.9-62.6,33.3-2.2.5-3.4,2.9-2.6,4.9h0Z"/><path id="path45" class="cls-2" d="M206,204.6c-12.2,29.8-27.3,72.8-39.8,116.2-.7,2.5-3.7,3.4-5.7,1.8-52.2-42.4-60.5-102.1-25.4-155.8,1.3-2,4.1-2.2,5.7-.4,15.9,17.5,37.3,27.9,62.6,33.3,2.2.5,3.4,2.9,2.6,4.9h0Z"/></g></g></svg>