<?xml version="1.0" encoding="UTF-8"?><svg id="Layer_2" xmlns="http://www.w3.org/2000/svg" viewBox="0 0 432 432"><defs><style>.cls-1{fill:#3fd9ff;}.cls-1,.cls-2{stroke-width:0px;}.cls-2{fill:#fff;}</style></defs><g id="svg57"><circle id="circle15" class="cls-1" cx="216" cy="216" r="216"/><path id="path52" class="cls-2" d="M313.1,181.9v-36.2c0-.8-.6-1.4-1.4-1.4h-36.2c-.8,0-1.4.6-1.4,1.4v32.3l-53.8-31.1,22.3-22.3c.6-.6.6-1.5,0-2l-25.6-25.6c-.6-.6-1.5-.6-2,0l-25.6,25.6c-.6.6-.6,1.5,0,2l22.3,22.3-53.6,30.9v-32.1c0-.8-.6-1.4-1.4-1.4h-36.2c-.8,0-1.4.6-1.4,1.4v36.2c0,.8.6,1.4,1.4,1.4h33.6v66.3h-33.7c-.8,0-1.4.6-1.4,1.4v36.2c0,.8.6,1.4,1.4,1.4h36.2c.8,0,1.4-.6,1.4-1.4v-33.2l53.7,31-22.4,22.4c-.6.6-.6,1.5,0,2l25.6,25.6c.6.6,1.5.6,2,0l25.6-25.6c.6-.6.6-1.5,0-2l-22.4-22.4,53.9-31.1v33.3c0,.8.6,1.4,1.4,1.4h36.2c.8,0,1.4-.6,1.4-1.4v-36.2c0-.8-.6-1.4-1.4-1.4h-33.9v-66.3h33.9c.9.1,1.5-.6,1.5-1.4ZM215.9,181.6l-30.3,19.5c-.4.3-.7.7-.7,1.2v31.9c0,.8-.6,1.4-1.4,1.4h-12.9c-.8,0-1.4-.6-1.4-1.4v-40.6l-.3-.5,38.5-24.8c.7-.4,1.6-.2,2,.4l7,10.8c.3.7.1,1.6-.5,2.1h0Z"/></g></svg>